  <svg version="1.1" xmlns="http://www.w3.org/2000/svg" display="none">
	<defs>
	<symbol id="compass" class="icon-compass" viewBox="0 0 8 8">
		<path d="M4 0c-2.203 0-4 1.797-4 4 0 2.203 1.797 4 4 4 2.203 0 4-1.797 4-4 0-2.203-1.797-4-4-4zm0 1c1.663 0 3 1.337 3 3s-1.337 3-3 3-3-1.337-3-3 1.337-3 3-3zm2 1l-3 1-1 3 3-1 1-3zm-2 1.5c.28 0 .5.22.5.5s-.22.5-.5.5-.5-.22-.5-.5.22-.5.5-.5z"></path>
	</symbol>
		<symbol id="chevron-bottom" viewBox="0 0 8 8">
		  <path d="M1.5 0l-1.5 1.5 4 4 4-4-1.5-1.5-2.5 2.5-2.5-2.5z" transform="translate(0 1)"></path>
		</symbol>
		<symbol id="chevron-left" viewBox="0 0 8 8">
		  <path d="M4 0l-4 4 4 4 1.5-1.5-2.5-2.5 2.5-2.5-1.5-1.5z" transform="translate(1)"></path>
		</symbol>
		<symbol id="chevron-right" viewBox="0 0 8 8">
		  <path d="M1.5 0l-1.5 1.5 2.5 2.5-2.5 2.5 1.5 1.5 4-4-4-4z" transform="translate(1)"></path>
		</symbol>
		<symbol id="chevron-top" viewBox="0 0 8 8">
		  <path d="M4 0l-4 4 1.5 1.5 2.5-2.5 2.5 2.5 1.5-1.5-4-4z" transform="translate(0 1)"></path>
		</symbol>
		<symbol id="collapse-down" viewBox="0 0 8 8">
		  <path d="M0 0v2h8v-2h-8zm2 3l2 2 2-2h-4zm-2 4v1h8v-1h-8z"></path>
		</symbol>
		<symbol id="collapse-up" viewBox="0 0 8 8">
		  <path d="M0 0v1h8v-1h-8zm4 3l-2 2h4l-2-2zm-4 3v2h8v-2h-8z"></path>
		</symbol>
		<symbol id="menu" viewBox="0 0 8 8">
		  <path d="M0 0v1h8v-1h-8zm0 2.969v1h8v-1h-8zm0 3v1h8v-1h-8z" transform="translate(0 1)"></path>
		</symbol>
		<symbol id="terminal" viewBox="0 0 8 8">
		  <path d="M.094 0c-.06 0-.094.034-.094.094v7.813c0 .06.034.094.094.094h7.813c.06 0 .094-.034.094-.094v-7.813c0-.06-.034-.094-.094-.094h-7.813zm1.406.781l1.719 1.719-1.719 1.719-.719-.719 1-1-1-1 .719-.719zm2.5 2.219h3v1h-3v-1z"></path>
		</symbol>
		<symbol id="eye" viewBox="0 0 8 8">
		  <path d="M4.031 0c-2.53 0-4.031 3-4.031 3s1.501 3 4.031 3c2.47 0 3.969-3 3.969-3s-1.499-3-3.969-3zm-.031 1c1.1 0 2 .9 2 2s-.9 2-2 2-2-.9-2-2 .9-2 2-2zm0 1c-.55 0-1 .45-1 1s.45 1 1 1 1-.45 1-1c0-.1-.032-.191-.063-.281-.08.16-.237.281-.438.281-.28 0-.5-.22-.5-.5 0-.2.121-.357.281-.438-.09-.03-.181-.063-.281-.063z" transform="translate(0 1)"></path>
		</symbol>
		<symbol id="loop-circular" viewBox="0 0 8 8">
		  <path d="M4 0c-1.651 0-3 1.349-3 3h-1l1.5 2 1.5-2h-1c0-1.109.891-2 2-2v-1zm2.5 1l-1.5 2h1c0 1.109-.891 2-2 2v1c1.651 0 3-1.349 3-3h1l-1.5-2z" transform="translate(0 1)"></path>
		</symbol>
		<symbol id="flash" viewBox="0 0 8 8">
		  <path d="M1.5 0l-1.5 3h2l-.656 2h-1.344l1 3 3-3h-1.5l1.5-3h-2l1-2h-1.5z" transform="translate(2)"></path>
		</symbol>
		<symbol id="arrow-thick-bottom" viewBox="0 0 8 8">
		  <path d="M2 0v5h-2l3.031 3 2.969-3h-2v-5h-2z" transform="translate(1)"></path>
		</symbol>
		<symbol id="arrow-thick-top" viewBox="0 0 8 8">
		  <path d="M2.969 0l-2.969 3h2v5h2v-5h2l-3.031-3z" transform="translate(1)"></path>
		</symbol>
		<symbol id="command" viewBox="0 0 8 8">
		  <path d="M1.5 0c-.83 0-1.5.67-1.5 1.5s.67 1.5 1.5 1.5h.5v1h-.5c-.83 0-1.5.67-1.5 1.5s.67 1.5 1.5 1.5 1.5-.67 1.5-1.5v-.5h1v.5c0 .83.67 1.5 1.5 1.5s1.5-.67 1.5-1.5-.67-1.5-1.5-1.5h-.5v-1h.5c.83 0 1.5-.67 1.5-1.5s-.67-1.5-1.5-1.5-1.5.67-1.5 1.5v.5h-1v-.5c0-.83-.67-1.5-1.5-1.5zm0 1c.28 0 .5.22.5.5v.5h-.5c-.28 0-.5-.22-.5-.5s.22-.5.5-.5zm4 0c.28 0 .5.22.5.5s-.22.5-.5.5h-.5v-.5c0-.28.22-.5.5-.5zm-2.5 2h1v1h-1v-1zm-1.5 2h.5v.5c0 .28-.22.5-.5.5s-.5-.22-.5-.5.22-.5.5-.5zm3.5 0h.5c.28 0 .5.22.5.5s-.22.5-.5.5-.5-.22-.5-.5v-.5z"></path>
		</symbol>
		<symbol id="fire" viewBox="0 0 8 8">
		  <path d="M2 0c1 2-2 3-2 5s2 3 2 3c-.98-1.98 2-3 2-5s-2-3-2-3zm3 3c1 2-2 3-2 5h3c.4 0 1-.5 1-2 0-2-2-3-2-3z"></path>
		</symbol>
		<symbol id="magnifying-glass" viewBox="0 0 8 8">
		  <path d="M3.5 0c-1.927 0-3.5 1.573-3.5 3.5s1.573 3.5 3.5 3.5c.592 0 1.166-.145 1.656-.406a1 1 0 0 0 .125.125l1 1a1.016 1.016 0 1 0 1.438-1.438l-1-1a1 1 0 0 0-.156-.125c.266-.493.438-1.059.438-1.656 0-1.927-1.573-3.5-3.5-3.5zm0 1c1.387 0 2.5 1.113 2.5 2.5 0 .661-.241 1.273-.656 1.719-.01.011-.021.021-.031.031a1 1 0 0 0-.125.125c-.442.397-1.043.625-1.688.625-1.387 0-2.5-1.113-2.5-2.5s1.113-2.5 2.5-2.5z"></path>
		</symbol>
		<symbol id="share-boxed" viewBox="0 0 8 8">
		  <path d="M.75 0c-.402 0-.75.348-.75.75v5.5c0 .402.348.75.75.75h4.5c.402 0 .75-.348.75-.75v-1.25h-1v1h-4v-5h2v-1h-2.25zm5.25 0v1c-2.05 0-3.704 1.544-3.938 3.531.213-.875.999-1.531 1.938-1.531h2v1l2-2-2-2z"></path>
		</symbol>
		<symbol id="cog" viewBox="0 0 8 8">
		  <path d="M3.5 0l-.5 1.188c-.1.04-.191.085-.281.125l-1.188-.5-.719.719.5 1.188c-.05.1-.095.181-.125.281l-1.188.5v1l1.188.5c.03.1.075.213.125.313l-.5 1.156.719.719 1.188-.5c.1.05.181.085.281.125l.5 1.188h1l.5-1.188c.1-.03.191-.085.281-.125l1.188.5.719-.719-.5-1.188c.04-.09.085-.181.125-.281l1.188-.5v-1l-1.188-.5c-.03-.09-.075-.191-.125-.281l.469-1.188-.688-.719-1.188.5c-.09-.04-.181-.095-.281-.125l-.5-1.188h-1zm.5 2.5c.83 0 1.5.67 1.5 1.5s-.67 1.5-1.5 1.5-1.5-.67-1.5-1.5.67-1.5 1.5-1.5z"></path>
		</symbol>
	<symbol id="badge" viewBox="0 0 8 8">
	  <path d="M2 0c-1.105 0-2 .895-2 2s.895 2 2 2 2-.895 2-2-.895-2-2-2zm-1 4.813v3.188l1-1 1 1v-3.188c-.31.11-.65.188-1 .188s-.69-.077-1-.188z" transform="translate(2)"></path>
	</symbol>
	<symbol id="chat" viewBox="0 0 8 8">
	  <path d="M0 0v5l1-1h1v-3h3v-1h-5zm3 2v4h4l1 1v-5h-5z"></path>
	</symbol>
	<symbol id="medical-cross" viewBox="0 0 8 8">
	  <path d="M2 0v2h-2v4h2v2h4v-2h2v-4h-2v-2h-4z"></path>
	</symbol>
	<symbol id="heart" viewBox="0 0 8 8">
	  <path d="M2 0c-.55 0-1.046.224-1.406.594-.37.36-.594.856-.594 1.406 0 .55.224 1.046.594 1.406l3.406 3.438 3.406-3.438c.37-.37.594-.856.594-1.406 0-.55-.224-1.046-.594-1.406-.36-.37-.856-.594-1.406-.594-.55 0-1.046.224-1.406.594-.37.36-.594.856-.594 1.406 0-.55-.224-1.046-.594-1.406-.36-.37-.856-.594-1.406-.594z" transform="translate(0 1)"></path>
	</symbol>
	<symbol id="comment-square" viewBox="0 0 8 8">
	  <path d="M.094 0c-.06 0-.094.034-.094.094v5.813c0 .06.034.094.094.094h5.906l2 2v-7.906000000000001c0-.06-.034-.094-.094-.094h-7.813z"></path>
	</symbol>
	</defs>
</svg>
